PathFileType	4	(X/Y/Z)	C:\Users\Basilio\Documents\Thesis Gigler\squatting_fais\c3dfiles\075\SJ_pre2\markers_experimental.trc
DataRate	CameraRate	NumFrames	NumMarkers	Units	OrigDataRate	OrigDataStartFrame	OrigNumFrames
200.000000	200.000000	4	61	mm	200.000000	1483	1695
Frame#	Time	FHD			LBHD			C7			T10			CLAV			LSHO			LUUPA			LMUPA			LDUPA			LLEP			LMEP			LRAD			LUL			LRFIN			RSHO			RUPA1			RMUPA			RDUPA			RLEP			RMEP			RRAD			RUL			RUFIN			LASI			RASI			USACR			LSACR			RSACR			LTHI1			LTHI2			LTHI3			LTHI4			LLFC			LMFC			LTIB1			LTIB2			LTIB3			LTIB4			LLMAL			LMMAL			LHEE			LMT1			LMT2			LMT5			RTHI			RTHI2			RTHI3			RTHI4			RLFC			RMFC			RTIB1			RTIB2			RTIB3			RTIB4			RLMAL			RMMAL			RHEE			RMT1			RMT2			RMT5			RBHD			
		X1	Y1	Z1	X2	Y2	Z2	X3	Y3	Z3	X4	Y4	Z4	X5	Y5	Z5	X6	Y6	Z6	X7	Y7	Z7	X8	Y8	Z8	X9	Y9	Z9	X10	Y10	Z10	X11	Y11	Z11	X12	Y12	Z12	X13	Y13	Z13	X14	Y14	Z14	X15	Y15	Z15	X16	Y16	Z16	X17	Y17	Z17	X18	Y18	Z18	X19	Y19	Z19	X20	Y20	Z20	X21	Y21	Z21	X22	Y22	Z22	X23	Y23	Z23	X24	Y24	Z24	X25	Y25	Z25	X26	Y26	Z26	X27	Y27	Z27	X28	Y28	Z28	X29	Y29	Z29	X30	Y30	Z30	X31	Y31	Z31	X32	Y32	Z32	X33	Y33	Z33	X34	Y34	Z34	X35	Y35	Z35	X36	Y36	Z36	X37	Y37	Z37	X38	Y38	Z38	X39	Y39	Z39	X40	Y40	Z40	X41	Y41	Z41	X42	Y42	Z42	X43	Y43	Z43	X44	Y44	Z44	X45	Y45	Z45	X46	Y46	Z46	X47	Y47	Z47	X48	Y48	Z48	X49	Y49	Z49	X50	Y50	Z50	X51	Y51	Z51	X52	Y52	Z52	X53	Y53	Z53	X54	Y54	Z54	X55	Y55	Z55	X56	Y56	Z56	X57	Y57	Z57	X58	Y58	Z58	X59	Y59	Z59	X60	Y60	Z60	X61	Y61	Z61	

1484	7.415	-262.7560119628907	1685.006713867188	-956.7359619140627	-420.0187377929689	1562.742309570313	-986.284118652344	-450.1288452148439	1456.742065429688	-939.0064697265627	-501.2947387695314	1136.011108398438	-930.1252441406252	-311.3571777343751	1384.515625	-931.1184692382815	-336.1726684570313	1420.319458007813	-1091.248046875	-388.4199523925782	1272.1982421875	-1255.410278320313	-361.0749511718751	1232.396728515625	-1243.38232421875	-391.175750732422	1211.9365234375	-1291.41748046875	-396.1413574218751	1127.791748046875	-1314.83740234375	-477.6210937500001	1127.071899414063	-1271.710205078125	-395.7208557128907	949.678894042969	-1140.030639648438	-352.2834472656251	910.4494628906252	-1188.042358398438	-354.4555664062501	935.8818359375002	-1093.693359375	-355.4355163574219	1430.711059570313	-773.4483032226565	-427.9777221679689	1291.56640625	-614.9823608398439	-401.1805419921876	1249.119384765625	-616.5753173828126	-442.3230590820314	1234.510009765625	-574.7728271484376	-448.8574218750001	1166.693359375	-546.9674682617189	-522.4974365234376	1143.371704101563	-582.9942626953126	-365.2480773925782	939.9768676757815	-649.6057128906251	-407.6403198242189	962.340270996094	-709.5574340820314	-348.5112609863282	954.0463867187502	-748.4763793945314	-348.8416137695313	933.5601806640627	-1044.515747070313	-353.1319580078126	957.9798583984377	-796.2143554687502	-503.5613098144532	1032.883911132813	-930.0855712890627	-508.6110229492189	1000.453430175781	-956.4012451171877	-511.4084777832032	1004.406127929688	-899.0188598632815	-392.544158935547	709.9572143554689	-1124.320434570313	-355.5164184570313	634.1748046875001	-1128.40576171875	-307.8588867187501	642.3012695312501	-1112.931274414063	-377.5521850585938	578.2150878906251	-1120.040283203125	-374.5044860839844	472.0767822265626	-1114.110473632813	-332.2341003417969	457.6589965820314	-997.867614746094	-334.0882873535157	342.9465942382813	-1087.693481445313	-400.5252380371095	312.1177368164063	-1134.453247070313	-360.3805541992188	300.2726135253907	-1116.309448242188	-374.5455627441407	221.1685943603516	-1087.081298828125	-475.3333129882814	93.11809539794923	-1100.778198242188	-435.2717590332032	100.6461257934571	-1022.901489257813	-523.4539184570314	50.78415298461915	-1050.741455078125	-310.3280639648438	52.10663223266603	-1065.72412109375	-318.6110534667969	56.0436134338379	-1113.8037109375	-365.0374450683594	41.74806213378907	-1160.325927734375	-403.1793823242189	767.3433837890626	-714.7288818359376	-356.9198303222657	720.4237060546876	-711.8254394531251	-327.0415649414063	729.3227539062501	-725.2245483398439	-372.6070861816407	636.2563476562501	-712.7945556640626	-362.3920593261719	483.6939697265626	-731.6580200195314	-326.7740173339844	467.6765136718751	-851.586608886719	-320.2429809570313	332.6535339355469	-785.1643676757815	-377.6944274902344	261.6827392578126	-723.8667602539064	-342.0126342773438	252.7250976562501	-754.5591430664064	-353.7129211425782	207.1464996337891	-788.6809082031252	-432.414276123047	91.54910278320314	-747.6880493164064	-396.3680419921876	110.1158905029297	-828.0161132812502	-476.7748413085939	49.42702102661134	-806.4611816406252	-268.9131469726563	59.66453552246095	-783.5771484375002	-276.2955017089844	62.50537109375001	-741.9066772460939	-316.3203125000001	38.84605026245118	-693.8434448242189	-345.3061523437501	1600.349365234375	-845.6348266601565	
1485	7.42	-261.9987182617188	1684.684204101563	-955.854675292969	-419.0111389160157	1562.166870117188	-984.9641723632815	-449.2944946289064	1456.4921875	-937.7937011718752	-500.5336914062501	1135.616577148438	-928.9165649414065	-310.4784545898438	1384.005004882813	-929.8804931640627	-335.2079467773438	1419.776000976563	-1090.056274414063	-387.3221130371095	1271.62255859375	-1254.087158203125	-359.0577087402344	1231.698486328125	-1241.6845703125	-390.1068725585939	1211.567993164063	-1290.180297851563	-395.0157775878907	1127.342895507813	-1313.492431640625	-476.4548950195314	1126.567749023438	-1270.370727539063	-394.7581176757814	949.1904907226565	-1138.82373046875	-351.1551818847657	909.8455200195315	-1186.594482421875	-353.5910034179688	935.622009277344	-1092.376220703125	-354.4539184570313	1430.211791992188	-772.132263183594	-426.900115966797	1290.796752929688	-613.6948242187501	-400.0550537109376	1248.658081054688	-615.4368286132814	-441.2682495117189	1233.816040039063	-573.5350341796876	-447.5697631835939	1165.976684570313	-545.6921997070314	-521.3663940429689	1142.730834960938	-581.6494140625001	-364.3962707519532	939.0169067382815	-648.4238281250001	-406.8883056640626	961.312194824219	-708.1962890625001	-347.7056579589844	953.4526367187502	-747.1750488281251	-348.2798767089844	933.176696777344	-1043.248657226563	-352.3114624023438	957.4434814453127	-795.087829589844	-502.6726989746095	1032.443115234375	-928.693054199219	-509.7709045410157	1000.319030761719	-954.9481201171877	-511.6166381835939	1003.87890625	-897.7097167968752	-391.4112548828126	709.8570556640626	-1123.504760742188	-353.7432250976563	633.9267578125001	-1127.701416015625	-306.6907043457032	642.2020263671876	-1112.164916992188	-377.0147399902344	578.2510986328126	-1119.632202148438	-372.7503662109376	471.9033813476564	-1113.822387695313	-330.7301330566407	457.3369140625001	-997.500427246094	-332.5663452148438	342.6246948242188	-1087.106811523438	-399.6026916503907	312.1717529296876	-1134.308349609375	-359.5706176757813	300.2448425292969	-1116.120849609375	-373.9012756347657	221.0335388183594	-1086.966430664063	-475.1365966796876	93.28162384033205	-1100.70263671875	-435.0849609375001	100.7306518554688	-1022.85791015625	-523.3390502929689	50.94930648803712	-1050.642822265625	-310.2678527832032	52.12161254882814	-1065.72314453125	-318.5905456542969	56.0658645629883	-1113.81982421875	-364.9838562011719	41.72459411621094	-1160.309326171875	-402.1829223632814	766.9947509765626	-713.6406860351564	-355.9776306152344	720.1754150390626	-711.0174560546876	-326.0219421386719	729.0858764648439	-724.0476684570314	-371.5194091796876	635.8886108398439	-712.2252197265626	-361.4174194335938	483.3497924804689	-731.1508789062501	-325.1877441406251	467.3695678710939	-851.0003662109377	-319.8155212402344	332.1867980957032	-784.7874145507815	-377.6289672851563	261.4231872558594	-723.6434326171876	-341.4727172851563	252.0585174560547	-753.9415893554689	-353.7503356933594	206.7880401611329	-788.7619628906252	-432.4004821777345	91.21179962158205	-747.6923217773439	-396.1650390625001	109.7738342285157	-828.023620605469	-476.7518920898439	49.37822723388673	-806.3748779296877	-268.6107788085938	59.50426101684572	-783.026306152344	-276.7251281738282	61.43447494506837	-741.7338256835939	-316.2263488769532	38.27099227905274	-693.3780517578126	-344.1432495117188	1600.05224609375	-844.4282836914065	
1486	7.425	-261.1619567871094	1684.312744140625	-955.1103515625002	-418.2107238769532	1561.57177734375	-983.652282714844	-448.1992797851564	1456.051391601563	-936.3017578125002	-499.4173278808595	1135.388916015625	-927.5120849609377	-310.0343933105469	1383.577392578125	-928.9132080078127	-334.2356262207032	1419.261840820313	-1088.6826171875	-386.2212829589845	1271.157836914063	-1252.903442382813	-358.1481018066407	1231.251831054688	-1240.392333984375	-388.8350830078126	1210.929077148438	-1288.924072265625	-393.7403564453126	1126.780639648438	-1312.28857421875	-475.4265136718751	1126.093872070313	-1269.346069335938	-393.9945373535157	948.8462524414065	-1137.635131835938	-350.1952514648438	909.3535766601565	-1185.448120117188	-352.4085388183594	935.1596679687502	-1091.1201171875	-353.3885498046876	1429.679443359375	-770.9026489257815	-425.7149963378907	1290.163208007813	-612.3970947265626	-398.8805236816407	1247.983154296875	-614.0449218750001	-440.0095214843751	1233.20947265625	-572.0847778320314	-446.2448730468751	1165.418823242188	-544.3667602539064	-520.0361328125001	1142.132080078125	-580.2350463867189	-363.3314208984376	938.2965087890627	-647.0939941406251	-405.7409057617189	960.669128417969	-706.8939819335939	-346.7484130859376	952.6112060546877	-745.7616577148439	-347.4087829589844	932.9354248046877	-1042.1728515625	-351.2714233398438	957.0888671875002	-793.9634399414065	-501.7573242187501	1032.102661132813	-927.5885009765627	-507.6004638671876	999.8679199218752	-953.9151000976565	-509.797576904297	1003.607177734375	-896.5857543945315	-390.1707763671876	709.5732421875001	-1122.693359375	-352.9501342773438	634.0453491210939	-1127.384765625	-305.3942260742188	642.1188964843751	-1111.310791015625	-374.9158020019532	577.8810424804689	-1119.099853515625	-371.4306640625001	471.811004638672	-1113.6337890625	-329.2618103027344	456.881805419922	-997.229431152344	-331.8325500488282	342.4273376464844	-1087.444091796875	-398.7822875976564	312.1939086914063	-1134.16259765625	-358.5868225097657	300.0863342285157	-1116.001586914063	-373.1347656250001	220.949447631836	-1086.795166015625	-475.0728149414064	93.50838470458986	-1100.636108398438	-434.8902587890626	100.8189849853516	-1022.804077148438	-523.2587280273439	51.11852264404298	-1050.507446289063	-310.2271423339844	52.02656173706056	-1065.785888671875	-318.4306945800782	55.95943069458009	-1113.792724609375	-365.0076904296876	41.80144119262696	-1160.294677734375	-401.2327575683595	766.7906494140626	-712.6962890625001	-355.0390319824219	719.7667846679689	-710.1213378906251	-325.0180053710938	728.8172607421876	-722.7760009765626	-370.5821228027344	635.6009521484376	-711.7368774414064	-360.9094238281251	482.8481445312501	-730.6401977539064	-323.9399414062501	467.0758666992189	-850.3022460937502	-319.4410400390626	331.7602233886719	-784.2733154296877	-377.4236145019532	260.9792175292969	-723.1918334960939	-341.8425598144532	251.6705322265626	-753.7612304687501	-353.2270202636719	206.2855072021485	-788.2905883789065	-432.1729736328126	90.92752075195314	-747.5317993164064	-395.7899475097657	109.4661560058594	-827.747497558594	-476.5271606445314	49.39223098754884	-806.2653808593752	-268.3132019042969	59.45323562622072	-782.369079589844	-276.9631347656251	61.158504486084	-741.3463134765626	-316.0974121093751	37.76536560058594	-692.8457031250001	-342.9634399414063	1599.738525390625	-843.3794555664065	
1487	7.43	-260.1462402343751	1683.875122070313	-954.0625610351565	-417.3448181152345	1560.889404296875	-982.3424072265627	-447.4271545410157	1455.600219726563	-934.9754028320315	-498.6331481933595	1134.97314453125	-926.486999511719	-308.6527404785157	1382.896362304688	-927.3400878906252	-333.2601623535157	1418.69921875	-1087.22607421875	-384.7975463867189	1270.52880859375	-1251.363403320313	-357.0909729003907	1230.675537109375	-1239.026611328125	-388.2156372070314	1210.581787109375	-1287.621826171875	-392.9489135742189	1126.555541992188	-1311.253540039063	-474.4329833984376	1125.729248046875	-1268.036865234375	-393.2909545898439	948.2253417968752	-1136.401611328125	-349.1826171875001	908.9277954101565	-1184.110107421875	-351.8181152343751	934.796813964844	-1090.011474609375	-352.0498962402344	1429.109741210938	-769.279968261719	-424.4882202148439	1289.60986328125	-610.9899291992189	-397.7199096679689	1247.17529296875	-612.7386474609376	-438.8606872558595	1232.505981445313	-570.8104858398439	-445.0793457031251	1164.644653320313	-543.1013793945314	-518.9336547851564	1141.37890625	-578.8881835937501	-362.4475708007813	937.5374145507815	-645.8617553710939	-405.0222473144532	960.1253662109377	-705.6976318359376	-345.7025146484376	952.1917114257815	-744.4649047851564	-346.6499023437501	932.5465087890627	-1041.08740234375	-350.2694396972657	956.4552001953127	-792.6164550781252	-500.989959716797	1031.648559570313	-926.2825317382815	-508.9408264160157	999.7423095703127	-952.2474365234377	-509.6795959472657	1003.044738769531	-895.2550048828127	-388.9254455566407	709.2393188476564	-1121.896118164063	-350.8146362304688	633.4741821289064	-1126.61376953125	-304.0047607421876	642.0770263671876	-1110.625366210938	-373.4471435546876	577.5460205078126	-1118.652465820313	-369.8462829589844	471.6591186523439	-1113.470458984375	-327.4119567871094	456.4260253906251	-997.101501464844	-330.6759338378907	342.1905822753907	-1087.392333984375	-397.7078247070314	312.2754821777344	-1134.080322265625	-357.5683898925782	299.8590087890626	-1116.092041015625	-372.9439697265626	221.0108489990235	-1087.250122070313	-474.6803588867189	93.76608276367189	-1100.572875976563	-434.646697998047	100.9349594116211	-1022.718322753906	-523.1342773437501	51.28176116943361	-1050.346801757813	-310.0220642089844	51.9346160888672	-1065.760375976563	-318.3455505371094	55.91170120239259	-1113.82177734375	-364.9776611328126	41.80820083618165	-1160.298095703125	-400.2833862304689	766.4989624023439	-711.7510986328126	-354.2709350585938	719.3361206054689	-709.2769165039064	-324.0275573730469	728.2687377929689	-721.3912963867189	-369.8766784667969	635.2596435546876	-711.0961303710939	-360.7699890136719	482.3331298828126	-730.1034545898439	-323.4357604980469	466.7959289550782	-849.806335449219	-319.0299682617188	331.2366943359376	-783.6909790039065	-377.0463256835938	260.3282470703126	-722.7152099609376	-340.1991271972657	251.0174713134766	-752.6151123046876	-352.8398437500001	205.8328094482422	-787.8262939453127	-431.8723449707032	90.65127563476564	-747.3341674804689	-395.3056640625001	109.0538406372071	-827.524108886719	-476.4623413085939	49.48404693603517	-806.1240234375002	-268.0053710937501	59.28676223754884	-781.7999267578127	-276.7058715820313	60.67233276367189	-740.8474121093751	-316.0142517089844	37.40196990966798	-692.3484497070314	-341.7947692871094	1599.444702148438	-842.2300415039065	
